# xmcd CD database file generated by Grip 3.1.4
# 
# Track frame offsets:
#       165
#       33852
#       71188
#       104861
#       138935
#       173206
#       200080
#       214359
#       230015
#       252914
#       281061
#       295552
# 
# Disc length: 4436 seconds
# 
# Revision: 2
# Processed by: cddbd v1.5.1PL0 Copyright (c) Steve Scherf et al.
# Submitted via: Grip 3.1.4
# 
DISCID=c411520c
DTITLE=Ian Gillan - Best Ballads
DYEAR=1996
DGENRE=Other
TTITLE0=Child in time
TTITLE1=No more came on the brazos
TTITLE2=Fighting man
TTITLE3=5 moons
TTITLE4=If You believe in me
TTITLE5=You led my heart astray
TTITLE6=Lonely Avenue
TTITLE7=Down the road
TTITLE8=Loving on a borrowed time
TTITLE9=If i sing softly
TTITLE10=M.A.D.  (Mutually assured destruction)
TTITLE11=Let it slide
EXTD=collection by Glover/Gillan Publ.\\nRossy Music Enterprises
EXTT0=
EXTT1=
EXTT2=
EXTT3=
EXTT4=
EXTT5=
EXTT6=
EXTT7=
EXTT8=
EXTT9=
EXTT10=Mutually assured destruction
EXTT11=
PLAYORDER=
